<?xml version="1.0" encoding="UTF-8" standalone="no"?>
<!DOCTYPE svg PUBLIC "-//W3C//DTD SVG 1.1//EN" "http://www.w3.org/Graphics/SVG/1.1/DTD/svg11.dtd">
<svg width="100%" height="100%" viewBox="0 0 864 192" version="1.1" xmlns="http://www.w3.org/2000/svg" xmlns:xlink="http://www.w3.org/1999/xlink" xml:space="preserve" xmlns:serif="http://www.serif.com/" style="fill-rule:evenodd;clip-rule:evenodd;stroke-linejoin:round;stroke-miterlimit:2;">
    <rect id="Artboard2" x="0" y="0" width="863.049" height="191.409" style="fill:none;"/>
    <clipPath id="_clip1">
        <rect x="0" y="0" width="863.049" height="191.409"/>
    </clipPath>
    <g clip-path="url(#_clip1)">
        <rect x="-0.007" y="-0.746" width="862.359" height="192.837"/>
        <rect x="6.521" y="5.783" width="91.803" height="179.781" style="fill:rgb(235,235,235);"/>
        <rect x="668.858" y="5.783" width="91.803" height="179.781" style="fill:rgb(235,235,235);"/>
        <rect x="101.133" y="5.783" width="91.803" height="179.781" style="fill:rgb(235,235,235);"/>
        <rect x="763.469" y="5.783" width="91.803" height="179.781" style="fill:rgb(235,235,235);"/>
        <rect x="53.62" y="5.783" width="91.803" height="89.89"/>
        <rect x="715.957" y="5.783" width="91.803" height="89.89"/>
        <rect x="195.745" y="5.783" width="91.803" height="179.781" style="fill:rgb(235,235,235);"/>
        <rect x="290.357" y="5.783" width="91.803" height="179.781" style="fill:rgb(235,235,235);"/>
        <rect x="384.968" y="5.783" width="91.803" height="179.781" style="fill:rgb(235,235,235);"/>
        <rect x="479.58" y="5.783" width="91.803" height="179.781" style="fill:rgb(235,235,235);"/>
        <rect x="574.192" y="5.783" width="91.803" height="179.781" style="fill:rgb(235,235,235);"/>
        <rect x="148.474" y="5.783" width="91.803" height="89.89"/>
        <rect x="337.527" y="5.783" width="91.803" height="89.89"/>
        <rect x="432.341" y="5.783" width="91.803" height="89.89"/>
        <rect x="526.785" y="5.783" width="91.803" height="89.89"/>
        <text x="28.882px" y="164.745px" style="font-family:'ArialMT', 'Arial', sans-serif;font-size:70.585px;">A</text>
        <text x="66.211px" y="75.991px" style="font-family:'ArialMT', 'Arial', sans-serif;font-size:70.585px;fill:white;">W</text>
        <text x="170.836px" y="75.991px" style="font-family:'ArialMT', 'Arial', sans-serif;font-size:70.585px;fill:white;">E</text>
        <text x="361.87px" y="75.991px" style="font-family:'ArialMT', 'Arial', sans-serif;font-size:70.585px;fill:white;">T</text>
        <text x="456.684px" y="75.991px" style="font-family:'ArialMT', 'Arial', sans-serif;font-size:70.585px;fill:white;">Z</text>
        <text x="547.414px" y="75.991px" style="font-family:'ArialMT', 'Arial', sans-serif;font-size:70.585px;fill:white;">U</text>
        <text x="734.767px" y="75.991px" style="font-family:'ArialMT', 'Arial', sans-serif;font-size:70.585px;fill:white;">O</text>
        <text x="123.501px" y="164.745px" style="font-family:'ArialMT', 'Arial', sans-serif;font-size:70.585px;">S</text>
        <text x="218.12px" y="164.745px" style="font-family:'ArialMT', 'Arial', sans-serif;font-size:70.585px;">D</text>
        <text x="312.738px" y="164.745px" style="font-family:'ArialMT', 'Arial', sans-serif;font-size:70.585px;">F</text>
        <text x="407.357px" y="164.745px" style="font-family:'ArialMT', 'Arial', sans-serif;font-size:70.585px;">G</text>
        <text x="501.975px" y="164.745px" style="font-family:'ArialMT', 'Arial', sans-serif;font-size:70.585px;">H</text>
        <text x="604.173px" y="164.745px" style="font-family:'ArialMT', 'Arial', sans-serif;font-size:70.585px;">J</text>
        <text x="691.212px" y="164.745px" style="font-family:'ArialMT', 'Arial', sans-serif;font-size:70.585px;">K</text>
        <text x="785.831px" y="164.745px" style="font-family:'ArialMT', 'Arial', sans-serif;font-size:70.585px;">L</text>
    </g>
</svg>
